PathFileType	4	(X/Y/Z)	C:\Users\Basilio\Documents\Thesis Gigler\squatting_fais\c3dfiles\058\SLS_front_pre1\markers_experimental.trc
DataRate	CameraRate	NumFrames	NumMarkers	Units	OrigDataRate	OrigDataStartFrame	OrigNumFrames
200.000000	200.000000	4	61	mm	200.000000	150	1204
Frame#	Time	FHD			LBHD			RBHD			C7			T10			CLAV			LSHO			LUUPA			LMUPA			LDUPA			LLEP			LMEP			LUL			LRFIN			RSHO			RUPA1			RMUPA			RDUPA			RLEP			RMEP			RRAD			RUL			RUFIN			LASI			RASI			USACR			LSACR			RSACR			LTHI1			LTHI2			LTHI3			LTHI4			LLFC			LMFC			LTIB1			LTIB2			LTIB3			LTIB4			LLMAL			LMMAL			LHEE			LMT1			LMT2			LMT5			RTHI			RTHI2			RTHI3			RTHI4			RLFC			RMFC			RTIB1			RTIB2			RTIB3			RTIB4			RLMAL			RMMAL			RHEE			RMT1			RMT2			RMT5			LRAD			
		X1	Y1	Z1	X2	Y2	Z2	X3	Y3	Z3	X4	Y4	Z4	X5	Y5	Z5	X6	Y6	Z6	X7	Y7	Z7	X8	Y8	Z8	X9	Y9	Z9	X10	Y10	Z10	X11	Y11	Z11	X12	Y12	Z12	X13	Y13	Z13	X14	Y14	Z14	X15	Y15	Z15	X16	Y16	Z16	X17	Y17	Z17	X18	Y18	Z18	X19	Y19	Z19	X20	Y20	Z20	X21	Y21	Z21	X22	Y22	Z22	X23	Y23	Z23	X24	Y24	Z24	X25	Y25	Z25	X26	Y26	Z26	X27	Y27	Z27	X28	Y28	Z28	X29	Y29	Z29	X30	Y30	Z30	X31	Y31	Z31	X32	Y32	Z32	X33	Y33	Z33	X34	Y34	Z34	X35	Y35	Z35	X36	Y36	Z36	X37	Y37	Z37	X38	Y38	Z38	X39	Y39	Z39	X40	Y40	Z40	X41	Y41	Z41	X42	Y42	Z42	X43	Y43	Z43	X44	Y44	Z44	X45	Y45	Z45	X46	Y46	Z46	X47	Y47	Z47	X48	Y48	Z48	X49	Y49	Z49	X50	Y50	Z50	X51	Y51	Z51	X52	Y52	Z52	X53	Y53	Z53	X54	Y54	Z54	X55	Y55	Z55	X56	Y56	Z56	X57	Y57	Z57	X58	Y58	Z58	X59	Y59	Z59	X60	Y60	Z60	X61	Y61	Z61	

151	0.75	-321.5856628417969	1802.404296875	-607.1547851562501	-479.4674377441407	1758.217651367188	-681.4943847656251	-307.9704589843751	1809.2197265625	-748.6842651367189	-488.6791992187501	1587.115234375	-698.0501098632814	-470.2705688476564	1279.611450195313	-691.5352783203126	-328.6897583007813	1551.7685546875	-681.6041259765626	-343.5441589355469	1600.1630859375	-839.5517578125002	-199.1186981201172	1511.119506835938	-959.2530517578127	-170.4519653320313	1549.656372070313	-943.208435058594	-129.7761840820313	1509.888793945313	-962.1562500000002	-54.06874465942384	1511.513061523438	-955.742126464844	-47.77109527587891	1456.234741210938	-922.018493652344	217.5696105957032	1541.085815429688	-930.6338500976565	315.3309631347657	1542.664306640625	-851.3254394531252	-363.0303039550782	1594.866333007813	-523.9263916015626	-213.4396057128907	1491.451782226563	-411.0160217285157	-187.1136779785157	1529.716064453125	-430.328338623047	-144.2805480957032	1496.200927734375	-407.9519348144532	-77.50228118896486	1483.885009765625	-411.2427062988282	-69.15428924560548	1428.1376953125	-463.462127685547	196.4315643310547	1508.431030273438	-487.4325561523439	193.9738311767579	1516.71533203125	-405.9991455078126	289.5127563476563	1526.516235351563	-469.9791870117189	-284.0232543945313	1116.857177734375	-847.4277343750002	-260.3914184570313	1086.96826171875	-608.3481445312501	-469.6857910156251	1155.556030273438	-694.1024780273439	-477.1576538085939	1126.080810546875	-724.4092407226564	-465.4864196777345	1120.646362304688	-668.2841186523439	-214.2683868408204	870.845397949219	-932.5482177734377	-154.3775482177735	812.3139648437502	-924.3071289062502	-117.1589508056641	827.414978027344	-892.8184814453127	-156.1946563720703	752.2151489257814	-924.5589599609377	-109.9333419799805	662.6692504882814	-917.7630004882815	-102.9652938842774	648.3377685546876	-789.388854980469	-3.951379776000977	561.1804199218751	-882.244323730469	-27.2577018737793	511.3210754394532	-947.4697875976565	7.573884487152101	518.2565917968751	-919.8812255859377	43.20242309570313	443.7014160156251	-900.0538330078127	76.39939880371095	240.5388336181641	-934.6980590820315	87.56613922119142	257.2885131835938	-843.4566650390627	37.10441589355469	176.1064453125	-889.9246215820315	236.5622558593751	265.9345397949219	-855.1585083007815	242.9069061279297	275.2144165039063	-900.7614746093752	214.0477142333985	237.5546264648438	-958.075866699219	-354.8790588378907	864.0661621093752	-559.4599609375001	-315.6649169921876	811.161560058594	-561.9019165039064	-282.9276733398438	813.2497558593752	-564.5697021484376	-341.3851318359376	732.2974853515626	-582.5767211914064	-329.7795410156251	553.4660034179689	-613.4930419921876	-291.1764221191407	551.5328979492189	-744.9414672851564	-287.6207580566407	353.5874023437501	-713.0679931640626	-331.0613098144532	273.3855285644532	-654.4393310546876	-294.8413696289063	266.8327331542969	-686.2609863281251	-307.0897216796876	226.2035064697266	-725.1371459960939	-372.7131347656251	119.1142654418946	-693.3917846679689	-340.2533264160157	144.4586791992188	-779.1743774414065	-438.2854919433595	103.0345535278321	-756.9945678710939	-228.4717712402344	59.27730560302736	-769.9389648437502	-221.8358306884766	58.99436569213869	-717.8418579101564	-271.6746826171876	27.88496208190919	-665.6867065429689	nan	nan	nan	
152	0.755	-321.5535278320313	1802.355224609375	-607.1872558593751	-479.4847106933595	1758.240600585938	-681.4595947265626	-307.9418945312501	1809.18115234375	-748.6774902343751	-488.6711425781251	1587.130249023438	-698.0205078125001	-470.3166503906251	1279.629638671875	-691.5513916015626	-328.7047424316407	1551.787841796875	-681.6122436523439	-343.5507507324219	1600.16259765625	-839.5618896484377	-199.3377685546876	1511.117431640625	-959.240661621094	-170.463119506836	1549.626098632813	-943.2254028320315	-129.8416137695313	1509.800659179688	-962.1802368164065	-54.13021469116212	1511.40283203125	-955.7627563476565	-48.02536010742189	1456.031005859375	-921.9089965820315	217.5109405517579	1541.024536132813	-930.7084960937502	314.3507690429688	1542.2333984375	-851.9199218750002	-362.9895629882813	1594.8701171875	-523.9027709960939	-213.4960327148438	1491.341064453125	-411.0116577148439	-187.0894470214844	1529.67578125	-430.2785034179689	-144.2496490478516	1496.18115234375	-407.9043579101564	-77.39772033691408	1483.867553710938	-411.245330810547	-69.12450408935548	1428.130859375	-463.4101867675782	196.3523406982422	1508.435791015625	-487.4004516601564	194.0254974365235	1516.707885742188	-406.0017700195314	289.5277404785157	1526.473754882813	-470.0078430175782	-284.0124511718751	1116.799072265625	-847.417663574219	-260.4721984863282	1086.9033203125	-608.3156738281251	-469.8363342285157	1155.523071289063	-694.0701293945314	-477.259979248047	1126.006591796875	-724.4390869140626	-465.5419006347657	1120.69873046875	-668.3248291015626	-214.2762603759766	870.8525390625002	-932.5588989257815	-154.3807983398438	812.2628173828127	-924.3419189453127	-117.3717498779297	827.3484497070315	-892.7772216796877	-156.2324829101563	752.2423706054689	-924.4870605468752	-109.9075775146485	662.6450805664064	-917.804626464844	-103.1632919311524	648.3648681640626	-789.2964477539065	-3.996414899826051	561.1970825195314	-882.2764892578127	-27.53894805908204	511.507781982422	-947.503356933594	7.535664558410646	518.2500610351564	-919.8814697265627	43.18921661376954	443.647918701172	-900.0639648437502	76.3513641357422	240.4926300048829	-934.7181396484377	87.47337341308595	257.2756958007813	-843.5028076171877	36.93345260620118	176.1093444824219	-889.8748168945315	236.4519958496094	265.9187622070313	-855.2171630859377	242.8070220947266	275.2883300781251	-900.8311157226565	213.8788452148438	237.5473175048829	-958.1419677734377	-354.9186401367188	864.0628051757815	-559.5116577148439	-315.9405212402344	811.1447753906252	-561.8131103515626	-283.1638183593751	813.2077636718752	-564.4607543945314	-341.6838989257813	732.3289184570314	-582.4991455078126	-329.8866882324219	553.5678100585939	-613.4675292968751	-291.0579223632813	551.4673461914064	-744.8594970703126	-287.5990295410157	353.5579223632813	-713.0336303710939	-331.0857849121094	273.3674316406251	-654.4108276367189	-295.0718994140626	266.7476501464844	-686.0892944335939	-307.1050109863282	226.1324005126954	-725.0879516601564	-372.7080688476563	119.1018981933594	-693.3766479492189	-340.2428283691407	144.471664428711	-779.101989746094	-438.267791748047	103.0626525878907	-757.0217285156251	-228.4910736083985	59.28785324096681	-769.890808105469	-221.8580017089844	58.90635299682619	-717.8373413085939	-271.6278686523438	27.87677574157716	-665.6380615234376	nan	nan	nan	
153	0.76	-321.5351562500001	1802.36083984375	-607.2094116210939	-479.4287719726564	1758.250244140625	-681.4647216796876	-307.8783874511719	1809.242309570313	-748.6505126953126	-488.7002563476564	1587.20703125	-697.9989624023439	-470.3135986328126	1279.635131835938	-691.5514526367189	-328.7142944335938	1551.86328125	-681.6164550781251	-343.6379699707032	1600.162963867188	-839.585632324219	-199.446762084961	1511.086059570313	-959.3056640625002	-170.567367553711	1549.574951171875	-943.239196777344	-129.8369903564453	1509.725219726563	-962.2173461914065	-54.16380691528322	1511.399047851563	-955.785827636719	-48.09132003784181	1455.962036132813	-921.8862915039065	217.3892669677735	1540.888793945313	-930.7152099609377	314.9351196289063	1542.4658203125	-851.4506835937502	-362.9950561523438	1594.928466796875	-523.8944702148439	-213.4256286621094	1491.328491210938	-411.0209960937501	-187.0999450683594	1529.668579101563	-430.2865600585939	-144.2377624511719	1496.171630859375	-407.8627929687501	-77.39216613769533	1483.838623046875	-411.2796325683595	-69.1472854614258	1428.111450195313	-463.4395141601564	196.1110382080079	1508.248901367188	-487.4722900390626	193.9420776367188	1516.658203125	-406.0473022460939	289.4486083984376	1526.365844726563	-470.1250915527345	-284.0613403320313	1116.837768554688	-847.4448242187502	-260.5178833007813	1086.95166015625	-608.2453613281251	-469.752410888672	1155.531005859375	-694.1729736328126	-477.2861633300782	1126.08251953125	-724.4432373046876	-465.5647583007814	1120.734619140625	-668.3825683593751	-214.247055053711	870.8562011718752	-932.6418457031252	-154.4583740234375	812.2407836914065	-924.388122558594	-117.468002319336	827.3143310546877	-892.8504028320315	-156.2684173583985	752.2340698242189	-924.5874633789065	-110.0560455322266	662.6286010742189	-917.8677978515627	-103.2580490112305	648.3604125976564	-789.3186645507815	-3.998050451278687	561.2022094726564	-882.3052978515627	-27.58850479125977	511.4844970703126	-947.539978027344	7.501823425292971	518.2368164062501	-919.932312011719	43.03319549560548	443.5806579589845	-900.0562744140627	76.25001525878908	240.4074859619141	-934.702819824219	87.40266418457033	257.2184448242188	-843.549011230469	36.91174316406251	176.0454864501953	-889.9329223632815	236.3578338623047	265.9375610351563	-855.3133544921877	242.5450592041016	275.2651672363282	-900.9173583984377	213.7246551513672	237.4885253906251	-958.1899414062502	-355.0470275878907	864.1425781250002	-559.5341796875001	-316.0868530273438	811.186462402344	-561.7952270507814	-283.1875000000001	813.3262329101565	-564.4097290039064	-341.8751220703126	732.3526611328126	-582.4587402343751	-330.0099182128907	553.5560302734376	-613.4207153320314	-291.1327514648438	551.4982910156251	-744.7991333007814	-287.6843872070313	353.5917053222657	-712.9527587890626	-331.1183166503907	273.3819580078126	-654.3428344726564	-295.1065673828126	266.7597351074219	-685.9568481445314	-307.0526428222657	226.2190399169922	-724.9779052734376	-372.8056640625001	119.0576705932617	-693.3050537109376	-340.2128601074219	144.474594116211	-779.0689086914065	-438.2898254394532	103.0585556030274	-756.9594726562501	-228.5041809082032	59.47166061401369	-769.863464355469	-221.8019561767579	58.9670753479004	-717.7966918945314	-271.6376342773438	27.86295127868653	-665.6754150390626	nan	nan	nan	
154	0.765	-321.4893493652344	1802.345581054688	-607.1231079101564	-479.4271545410157	1758.297607421875	-681.4317016601564	-307.8618164062501	1809.215576171875	-748.6377563476564	-488.7061462402345	1587.21728515625	-697.9652709960939	-470.3948669433595	1279.619140625	-691.5484619140626	-328.7172546386719	1551.860473632813	-681.6173706054689	-343.7119750976563	1600.1611328125	-839.5769042968752	-199.4451446533204	1511.06982421875	-959.3359375000002	-170.6685943603516	1549.521484375	-943.2956542968752	-129.8782501220703	1509.71875	-962.2882080078127	-54.23689651489259	1511.31591796875	-955.8262939453127	-48.1970558166504	1455.972534179688	-921.920104980469	217.3569030761719	1540.813842773438	-930.731384277344	314.3081665039063	1542.036010742188	-852.0069580078127	-362.9174499511719	1594.981689453125	-523.8880004882814	-213.4135894775391	1491.290893554688	-410.9591369628907	-187.0681915283203	1529.631103515625	-430.2994689941407	-144.2144165039063	1496.137939453125	-407.8955688476564	-77.37762451171876	1483.805297851563	-411.282440185547	-69.14015960693361	1428.111938476563	-463.4428710937501	196.1333465576172	1508.184448242188	-487.5410156250001	193.7271881103516	1516.474975585938	-406.0870666503907	289.5341796875001	1526.34326171875	-470.2347717285157	-284.0744018554688	1116.825927734375	-847.4815673828127	-260.5531921386719	1086.964233398438	-608.2421875000001	-469.9206542968751	1155.57275390625	-694.1462402343751	-477.275115966797	1126.130737304688	-724.5294799804689	-465.6560974121095	1120.778076171875	-668.3884277343751	-214.3121490478516	870.8308105468752	-932.6763916015627	-154.4532318115235	812.2182617187502	-924.4272460937502	-117.5296859741211	827.3023071289065	-892.8286743164065	-156.332748413086	752.2025756835939	-924.6248168945315	-110.1019515991211	662.5891723632814	-917.9224243164065	-103.2822265625	648.4044799804689	-789.0188598632815	-4.054264545440675	561.1930541992189	-882.3574829101565	-27.61731338500977	511.4522094726564	-947.584899902344	7.39918088912964	518.1170654296876	-919.9246826171877	42.8357048034668	443.5775756835939	-900.1364746093752	76.11853790283205	240.4033203125001	-934.770202636719	87.28535461425783	257.1913452148438	-843.6348266601565	36.89115905761719	175.9654693603516	-890.0207519531252	236.2779235839844	265.9376220703126	-855.466491699219	242.4550781250001	275.2963562011719	-901.0513916015627	213.6333618164063	237.4602813720704	-958.2937011718752	-355.1601867675782	864.2676391601565	-559.5652465820314	-316.2468872070313	811.2605590820315	-561.7573852539064	-283.3489990234376	813.2164306640627	-564.3707275390626	-341.9065551757813	732.3726806640626	-582.4267578125001	-330.0991210937501	553.5226440429689	-613.3867187500001	-291.0565185546876	551.5550537109376	-744.7169799804689	-287.7520446777344	353.5723876953126	-712.8699951171876	-331.1784667968751	273.3691406250001	-654.2615356445314	-295.2122497558594	266.9438476562501	-685.8998413085939	-307.0768432617188	226.1972961425782	-724.9210205078126	-372.7595520019532	119.1188735961914	-693.2892456054689	-340.2394104003907	144.5831146240235	-779.0474853515627	-438.2693786621095	103.0558853149414	-756.9688110351564	-228.3461608886719	58.96696853637697	-769.9479980468752	-221.8478240966797	58.94431304931642	-717.7540283203126	-271.6552429199219	27.82665634155274	-665.6504516601564	nan	nan	nan	
